


 
http://www.imdb.com/title/tt0453562/


The life story of Jackie Robinson and his history-making signing with the Brooklyn Dodgers under the guidance of team executive Branch Rickey. 



Director:
 Brian Helgeland 

Writer:
 Brian Helgeland (screenplay) 

Stars:
 Chadwick Boseman, Harrison Ford, Nicole Beharie 

Genres:
  Biography |  Drama |  Sport 

Country:
 USA 

Language:
 English 




Format                                   : MPEG-4
Format profile                           : Base Media
Codec ID                                 : isom
File size                                : 2.15 GiB
Duration                                 : 1h 57mn
Overall bit rate mode                    : Variable
Overall bit rate                         : 2 631 Kbps
Encoded date                             : UTC 2013-04-19 21:19:41
Tagged date                              : UTC 2013-04-19 21:19:50

Video
ID                                       : 2
Format                                   : AVC
Format/Info                              : Advanced Video Codec
Format profile                           : Baseline@L3.1
Format settings, CABAC                   : No
Format settings, ReFrames                : 1 frame
Format settings, GOP                     : M=1, N=24
Muxing mode                              : Container profile=Baseline@3.0
Codec ID                                 : avc1
Codec ID/Info                            : Advanced Video Coding
Duration                                 : 1h 57mn
Bit rate mode                            : Variable
Bit rate                                 : 2 496 Kbps
Maximum bit rate                         : 3 750 Kbps
Width                                    : 848 pixels
Height                                   : 480 pixels
Display aspect ratio                     : 16:9
Original display aspect ratio            : 16:9
Frame rate mode                          : Constant
Frame rate                               : 29.970 fps
Color space                              : YUV
Chroma subsampling                       : 4:2:0
Bit depth                                : 8 bits
Scan type                                : Progressive
Bits/(Pixel*Frame)                       : 0.205
Stream size                              : 2.04 GiB (95%)
Language                                 : English

Audio
ID                                       : 1
Format                                   : AAC
Format/Info                              : Advanced Audio Codec
Format profile                           : LC
Codec ID                                 : 40
Duration                                 : 1h 57mn
Bit rate mode                            : Variable
Bit rate                                 : 128 Kbps
Maximum bit rate                         : 209 Kbps
Channel(s)                               : 2 channels
Channel positions                        : Front: L R
Sampling rate                            : 48.0 KHz
Compression mode                         : Lossy
Stream size                              : 107 MiB (5%)
Language                                 : English

Text
ID                                       : 3
Format                                   : Apple text
Codec ID                                 : text
Duration                                 : 1h 45mn
Bit rate mode                            : Constant
Bit rate                                 : 0 bps
Stream size                              : 176 Bytes (0%)
Encoded date                             : UTC 2013-04-19 21:19:50
Tagged date                              : UTC 2013-04-19 21:19:50




    	http://www.shotpix.com/images/15469476716069553473.png
    	http://www.shotpix.com/images/21118955346515990528.png
    	http://www.shotpix.com/images/08464920155918904903.png
    	http://www.shotpix.com/images/16961489593435500517.png
    	http://www.shotpix.com/images/13402862951996152401.png